<svg width="285" height="286" xmlns="http://www.w3.org/2000/svg" xmlns:xlink="http://www.w3.org/1999/xlink" xml:space="preserve" overflow="hidden"><defs><linearGradient x1="710.978" y1="391.617" x2="727.645" y2="514.962" gradientUnits="userSpaceOnUse" spreadMethod="pad" id="fill0"><stop offset="0" stop-color="#4B4B4B" stop-opacity="1"/><stop offset="1" stop-color="#252525" stop-opacity="1"/></linearGradient><linearGradient x1="798.462" y1="208.183" x2="848.061" y2="575.14" gradientUnits="userSpaceOnUse" spreadMethod="pad" id="fill1"><stop offset="0" stop-color="#4B4B4B" stop-opacity="1"/><stop offset="1" stop-color="#252525" stop-opacity="1"/></linearGradient><linearGradient x1="741.685" y1="298.441" x2="827.891" y2="636.372" gradientUnits="userSpaceOnUse" spreadMethod="pad" id="fill2"><stop offset="0" stop-color="#FAF8E5" stop-opacity="1"/><stop offset="1" stop-color="#FAEEAC" stop-opacity="1"/></linearGradient><linearGradient x1="731.935" y1="365.744" x2="731.935" y2="383.21" gradientUnits="userSpaceOnUse" spreadMethod="pad" id="fill3"><stop offset="0" stop-color="#FFD869" stop-opacity="1"/><stop offset="1" stop-color="#FEC52B" stop-opacity="1"/></linearGradient><linearGradient x1="816.649" y1="398.711" x2="832.358" y2="514.932" gradientUnits="userSpaceOnUse" spreadMethod="pad" id="fill4"><stop offset="0" stop-color="#4B4B4B" stop-opacity="1"/><stop offset="1" stop-color="#252525" stop-opacity="1"/></linearGradient></defs><g transform="translate(-657 -270)"><g><g><g><g><path d="M737.869 452.091C730.515 480.746 727.042 486.722 719.09 495.49 712.776 502.448 708.25 498.916 706.351 493.313 702.748 482.675 704.706 442.104 729.953 418.177L737.869 452.091Z" fill="url(#fill0)" fill-rule="nonzero"/><path d="M871 519.5 817.75 519.5 754.128 312.896C764.453 302.376 783.51 294.667 805.917 294.667 865.083 294.667 882.833 361.507 882.833 416.201L882.833 507.667C882.833 514.205 877.538 519.5 871 519.5Z" fill="url(#fill1)" fill-rule="nonzero"/><path d="M754.128 312.896C728.544 336.438 723.083 379.742 723.083 416.639L723.083 501.75C723.083 511.554 731.029 519.5 740.833 519.5L817.75 519.5C817.75 477.143 829.583 422.958 829.583 380.6 829.583 318.333 794.083 306.843 754.128 312.896Z" fill="url(#fill2)" fill-rule="nonzero"/><path d="M752.667 359.75C752.667 369.553 744.72 377.5 734.917 377.5 725.114 377.5 717.167 369.553 717.167 359.75 717.167 349.947 725.114 342 734.917 342 744.72 342 752.667 349.947 752.667 359.75Z" fill="#313131" fill-rule="nonzero" fill-opacity="1"/><path d="M734.794 348.717C736.52 351.123 735.024 355.149 731.452 357.711 727.881 360.273 723.587 360.4 721.862 357.994 720.136 355.588 721.632 351.561 725.203 349 728.775 346.438 733.069 346.311 734.794 348.717Z" fill="#FFFFFF" fill-rule="nonzero" fill-opacity="1"/><path d="M701.712 374.654C712.084 372.276 758.583 365.667 758.583 365.667 761.648 367.637 764.453 369.986 764.453 374.926 764.453 379.523 761.784 381.577 758.583 383.417 758.583 383.417 712.279 381.423 701.937 379.594 698.665 379.015 698.576 375.376 701.712 374.654Z" fill="url(#fill3)" fill-rule="nonzero"/><path d="M811.833 359.75C811.833 369.553 803.886 377.5 794.083 377.5 784.28 377.5 776.333 369.553 776.333 359.75 776.333 349.947 784.28 342 794.083 342 803.886 342 811.833 349.947 811.833 359.75Z" fill="#313131" fill-rule="nonzero" fill-opacity="1"/><path d="M793.957 348.712C795.683 351.118 794.187 355.145 790.616 357.706 787.044 360.268 782.75 360.395 781.025 357.989 779.299 355.583 780.795 351.557 784.367 348.995 787.938 346.433 792.232 346.307 793.957 348.712Z" fill="#FFFFFF" fill-rule="nonzero" fill-opacity="1"/><path d="M758.583 383.417C761.027 382.008 763.133 380.464 764.009 377.778L724.32 381.6C740.49 383.073 758.583 383.417 758.583 383.417Z" fill="#E3A600" fill-rule="nonzero" fill-opacity="1"/><path d="M846.156 425.236C843.783 422.076 839.062 422.052 836.701 425.218 819.111 448.772 795.562 481.13 793.859 491.822 792.379 501.105 797.042 501.75 802.958 501.75 808.792 501.75 852.037 501.75 858.9 444.991 859.084 443.471 858.652 441.897 857.735 440.672L846.156 425.236Z" fill="url(#fill4)" fill-rule="nonzero"/></g></g></g></g></g></svg>